<svg xmlns="http://www.w3.org/2000/svg" width="1024" height="1024" viewBox="0 0 1024 1024">
  <g transform="rotate(0 512 512)"><rect x="500" y="206" width="24" height="62" rx="12" fill="#1e2a44"/></g>
  <g transform="rotate(30 512 512)"><circle cx="512" cy="226" r="11" fill="#33405e"/></g>
  <g transform="rotate(60 512 512)"><circle cx="512" cy="226" r="11" fill="#33405e"/></g>
  <g transform="rotate(90 512 512)"><rect x="500" y="206" width="24" height="62" rx="12" fill="#1e2a44"/></g>
  <g transform="rotate(120 512 512)"><circle cx="512" cy="226" r="11" fill="#33405e"/></g>
  <g transform="rotate(150 512 512)"><circle cx="512" cy="226" r="11" fill="#33405e"/></g>
  <g transform="rotate(180 512 512)"><rect x="500" y="206" width="24" height="62" rx="12" fill="#1e2a44"/></g>
  <g transform="rotate(210 512 512)"><circle cx="512" cy="226" r="11" fill="#33405e"/></g>
  <g transform="rotate(240 512 512)"><circle cx="512" cy="226" r="11" fill="#33405e"/></g>
  <g transform="rotate(270 512 512)"><rect x="500" y="206" width="24" height="62" rx="12" fill="#1e2a44"/></g>
  <g transform="rotate(300 512 512)"><circle cx="512" cy="226" r="11" fill="#33405e"/></g>
  <g transform="rotate(330 512 512)"><circle cx="512" cy="226" r="11" fill="#33405e"/></g>
</svg>
